<svg xmlns="http://www.w3.org/2000/svg" xmlns:svg="http://www.w3.org/2000/svg" id="svg666" width="398.633" height="171.333" version="1.1" viewBox="0 0 398.633 171.333"><defs id="defs670"><clipPath id="clipPath684" clipPathUnits="userSpaceOnUse"><path id="path682" d="M -2,-2 H 1566 V 379 H -2 Z"/></clipPath><clipPath id="clipPath1517" clipPathUnits="userSpaceOnUse"><rect style="fill:none;stroke:none;stroke-width:.751177;stroke-linecap:round;stroke-linejoin:round;paint-order:markers stroke fill" id="rect1519" width="298.975" height="128.499" x="50.4" y="92.555"/></clipPath></defs><g id="g674" transform="matrix(1.3333333,0,0,-1.3333333,-66.905388,692.59292)"><g id="g676" clip-path="url(#clipPath1517)" transform="matrix(1,0,0,-1,-0.22095682,612)"><g id="g678" transform="matrix(0.44194373,0,0,0.44194373,50.399998,54)"><g id="g680" clip-path="url(#clipPath684)"><path d="M 0,0 H 1565 V 147 H 0 Z" style="fill:#fff;fill-opacity:1;fill-rule:nonzero;stroke:none" id="path686"/><path d="M 0,147 H 233 V 378 H 0 Z" style="fill:#fff;fill-opacity:1;fill-rule:nonzero;stroke:none" id="path688"/><path d="m 1417,147 h 148 v 21 h -148 z" style="fill:#fff;fill-opacity:1;fill-rule:nonzero;stroke:none" id="path690"/><path d="m 1528,189 h 37 v 21 h -37 z" style="fill:#fff;fill-opacity:1;fill-rule:nonzero;stroke:none" id="path692"/><path d="m 1417,210 h 148 v 21 h -148 z" style="fill:#fff;fill-opacity:1;fill-rule:nonzero;stroke:none" id="path694"/><path d="m 936,231 h 629 v 21 H 936 Z" style="fill:#fff;fill-opacity:1;fill-rule:nonzero;stroke:none" id="path696"/><path d="m 233,252 h 1332 v 42 H 233 Z" style="fill:#fff;fill-opacity:1;fill-rule:nonzero;stroke:none" id="path698"/><path d="m 640,294 h 925 v 21 H 640 Z" style="fill:#fff;fill-opacity:1;fill-rule:nonzero;stroke:none" id="path700"/><path d="m 307,315 h 1258 v 21 H 307 Z" style="fill:#fff;fill-opacity:1;fill-rule:nonzero;stroke:none" id="path702"/><path d="m 381,336 h 1184 v 21 H 381 Z" style="fill:#fff;fill-opacity:1;fill-rule:nonzero;stroke:none" id="path704"/><path d="m 418,357 h 1147 v 21 H 418 Z" style="fill:#fff;fill-opacity:1;fill-rule:nonzero;stroke:none" id="path706"/><path d="m 232,146 h 1185 v 22 H 232 Z" style="fill:#d9ead3;fill-opacity:1;fill-rule:nonzero;stroke:none" id="path708"/><path d="m 232,167 h 1333 v 22 H 232 Z" style="fill:#d0e0e3;fill-opacity:1;fill-rule:nonzero;stroke:none" id="path710"/><path d="m 232,188 h 1296 v 22 H 232 Z" style="fill:#d5a6bd;fill-opacity:1;fill-rule:nonzero;stroke:none" id="path712"/><path d="m 232,209 h 1185 v 22 H 232 Z" style="fill:#b4a7d6;fill-opacity:1;fill-rule:nonzero;stroke:none" id="path714"/><path d="m 232,230 h 704 v 22 H 232 Z" style="fill:#ffd966;fill-opacity:1;fill-rule:nonzero;stroke:none" id="path716"/><path d="m 232,293 h 38 v 85 h -38 z" style="fill:#d5a6bd;fill-opacity:1;fill-rule:nonzero;stroke:none" id="path718"/><path d="m 269,293 h 149 v 22 H 269 Z" style="fill:#b4a7d6;fill-opacity:1;fill-rule:nonzero;stroke:none" id="path720"/><path d="m 417,293 h 38 v 22 h -38 z" style="fill:#ffd966;fill-opacity:1;fill-rule:nonzero;stroke:none" id="path722"/><path d="m 454,293 h 75 v 22 h -75 z" style="fill:#d9ead3;fill-opacity:1;fill-rule:nonzero;stroke:none" id="path724"/><path d="m 528,293 h 112 v 22 H 528 Z" style="fill:#d0e0e3;fill-opacity:1;fill-rule:nonzero;stroke:none" id="path726"/><path d="m 269,314 h 38 v 64 h -38 z" style="fill:#ffd966;fill-opacity:1;fill-rule:nonzero;stroke:none" id="path728"/><path d="m 306,335 h 75 v 22 h -75 z" style="fill:#d9ead3;fill-opacity:1;fill-rule:nonzero;stroke:none" id="path730"/><path d="m 306,356 h 112 v 22 H 306 Z" style="fill:#d0e0e3;fill-opacity:1;fill-rule:nonzero;stroke:none" id="path732"/><path d="m 232,145 v 107 m 0,40 v 86 m 37,-191 v 23 m 0,19 v 23 m 0,40 v 86 m 37,-233 v 23 m 0,19 v 23 m 0,19 v 23 m 0,61 v 65 m 37,-212 v 44 m 0,19 v 23 m 37,-107 v 23 m 0,19 v 65 m -149,83 h 150 m -1,-1 v 23 m 37,-170 v 23 m 0,82 v 23 m -186,41 h 187 m -187,21 h 187 m -1,-22 v 23 m 37,-233 v 65 m 0,82 v 23 m 37,-128 v 23 m 37,-65 v 23 m 0,19 v 65 m 0,40 v 23 m 37,-149 v 44 m 37,-65 v 23 m 0,19 v 23 m 37,-23 v 23 m -408,83 h 409 m -409,21 h 409 m -1,-22 v 23 m 37,-170 v 107 m 37,-65 v 23 m 37,-65 v 23 m 0,19 v 23 m 37,-44 v 44 m 0,19 v 23 m 37,-107 v 23 m 0,19 v 65 m 37,-65 v 23 m 0,19 v 23 m 37,-107 v 65 m 0,19 v 23 m 37,-65 v 23 m -704,41 h 705 m -1,-22 v 23 m 37,-107 v 23 m 0,19 v 44 m 37,-65 v 44 m 37,-65 v 23 m 0,19 v 23 m 37,-23 v 23 m 37,-65 v 86 m 37,-44 v 23 m 37,-65 v 23 m 0,19 v 23 m 37,-44 v 44 m 37,-65 v 23 m 0,19 v 44 m 37,-44 v 23 m 37,-65 v 65 m 37,-23 v 23 M 231,146 h 1186 m -1,-1 v 23 M 231,230 h 1186 m -1,-43 v 44 m 37,-65 v 44 m 37,-23 v 23 M 231,209 h 1297 m -1,-22 v 23 M 231,167 H 1565 M 231,188 h 1334 m -1,-22 v 23" style="fill:none;stroke:#000;stroke-width:2;stroke-linecap:butt;stroke-linejoin:miter;stroke-miterlimit:10;stroke-dasharray:none;stroke-opacity:1" id="path734"/><text id="text738" transform="translate(3,15.245117)" xml:space="preserve" style="font-variant:normal;font-weight:400;font-size:13px;font-family:Arial;-inkscape-font-specification:ArialMT;writing-mode:lr-tb;fill:#000;fill-opacity:1;fill-rule:nonzero;stroke:none"><tspan id="tspan736" x="0 8.658 15.886 22.386 29.614 33.215 40.443 43.329 50.557 57.057 63.557 67.158 70.044 76.544 80.145 87.373 94.601 98.202 109.031" y="0">Each block is 10 ms</tspan></text><text id="text742" transform="translate(3,99.24512)" xml:space="preserve" style="font-variant:normal;font-weight:700;font-size:13px;font-family:Arial;-inkscape-font-specification:Arial-BoldMT;writing-mode:lr-tb;fill:#000;fill-opacity:1;fill-rule:nonzero;stroke:none"><tspan id="tspan740" x="0 9.386 18.772 26.702" y="0">DATA</tspan></text><text id="text746" transform="translate(3,120.24512)" xml:space="preserve" style="font-variant:normal;font-weight:700;font-size:13px;font-family:Arial;-inkscape-font-specification:Arial-BoldMT;writing-mode:lr-tb;fill:#000;fill-opacity:1;fill-rule:nonzero;stroke:none"><tspan id="tspan744" x="0 8.658 12.987 20.215 25.272 29.601 33.202 37.531 41.132 52.689 59.917 63.518 67.847 79.404 86.632" y="0">Start time (ms)</tspan></text><text id="text750" transform="translate(236,120.24512)" xml:space="preserve" style="font-variant:normal;font-weight:400;font-size:13px;font-family:Arial;-inkscape-font-specification:ArialMT;writing-mode:lr-tb;fill:#000;fill-opacity:1;fill-rule:nonzero;stroke:none"><tspan id="tspan748" x="0" y="0">0</tspan></text><text id="text754" transform="translate(273,120.24512)" xml:space="preserve" style="font-variant:normal;font-weight:400;font-size:13px;font-family:Arial;-inkscape-font-specification:ArialMT;writing-mode:lr-tb;fill:#000;fill-opacity:1;fill-rule:nonzero;stroke:none"><tspan id="tspan752" x="0 7.228" y="0">10</tspan></text><text id="text758" transform="translate(310,120.24512)" xml:space="preserve" style="font-variant:normal;font-weight:400;font-size:13px;font-family:Arial;-inkscape-font-specification:ArialMT;writing-mode:lr-tb;fill:#000;fill-opacity:1;fill-rule:nonzero;stroke:none"><tspan id="tspan756" x="0 7.228" y="0">20</tspan></text><text id="text762" transform="translate(347,120.24512)" xml:space="preserve" style="font-variant:normal;font-weight:400;font-size:13px;font-family:Arial;-inkscape-font-specification:ArialMT;writing-mode:lr-tb;fill:#000;fill-opacity:1;fill-rule:nonzero;stroke:none"><tspan id="tspan760" x="0 7.228" y="0">30</tspan></text><text id="text766" transform="translate(384,120.24512)" xml:space="preserve" style="font-variant:normal;font-weight:400;font-size:13px;font-family:Arial;-inkscape-font-specification:ArialMT;writing-mode:lr-tb;fill:#000;fill-opacity:1;fill-rule:nonzero;stroke:none"><tspan id="tspan764" x="0 7.228" y="0">40</tspan></text><text id="text770" transform="translate(421,120.24512)" xml:space="preserve" style="font-variant:normal;font-weight:400;font-size:13px;font-family:Arial;-inkscape-font-specification:ArialMT;writing-mode:lr-tb;fill:#000;fill-opacity:1;fill-rule:nonzero;stroke:none"><tspan id="tspan768" x="0 7.228" y="0">50</tspan></text><text id="text774" transform="translate(458,120.24512)" xml:space="preserve" style="font-variant:normal;font-weight:400;font-size:13px;font-family:Arial;-inkscape-font-specification:ArialMT;writing-mode:lr-tb;fill:#000;fill-opacity:1;fill-rule:nonzero;stroke:none"><tspan id="tspan772" x="0 7.228" y="0">60</tspan></text><text id="text778" transform="translate(495,120.24512)" xml:space="preserve" style="font-variant:normal;font-weight:400;font-size:13px;font-family:Arial;-inkscape-font-specification:ArialMT;writing-mode:lr-tb;fill:#000;fill-opacity:1;fill-rule:nonzero;stroke:none"><tspan id="tspan776" x="0 7.228" y="0">70</tspan></text><text id="text782" transform="translate(532,120.24512)" xml:space="preserve" style="font-variant:normal;font-weight:400;font-size:13px;font-family:Arial;-inkscape-font-specification:ArialMT;writing-mode:lr-tb;fill:#000;fill-opacity:1;fill-rule:nonzero;stroke:none"><tspan id="tspan780" x="0 7.228" y="0">80</tspan></text><text id="text786" transform="translate(569,120.24512)" xml:space="preserve" style="font-variant:normal;font-weight:400;font-size:13px;font-family:Arial;-inkscape-font-specification:ArialMT;writing-mode:lr-tb;fill:#000;fill-opacity:1;fill-rule:nonzero;stroke:none"><tspan id="tspan784" x="0 7.228" y="0">90</tspan></text><text id="text790" transform="translate(606,120.24512)" xml:space="preserve" style="font-variant:normal;font-weight:400;font-size:13px;font-family:Arial;-inkscape-font-specification:ArialMT;writing-mode:lr-tb;fill:#000;fill-opacity:1;fill-rule:nonzero;stroke:none"><tspan id="tspan788" x="0 7.228 14.456" y="0">100</tspan></text><text id="text794" transform="translate(643,120.24512)" xml:space="preserve" style="font-variant:normal;font-weight:400;font-size:13px;font-family:Arial;-inkscape-font-specification:ArialMT;writing-mode:lr-tb;fill:#000;fill-opacity:1;fill-rule:nonzero;stroke:none"><tspan id="tspan792" x="0 7.228 14.456" y="0">110</tspan></text><text id="text798" transform="translate(680,120.24512)" xml:space="preserve" style="font-variant:normal;font-weight:400;font-size:13px;font-family:Arial;-inkscape-font-specification:ArialMT;writing-mode:lr-tb;fill:#000;fill-opacity:1;fill-rule:nonzero;stroke:none"><tspan id="tspan796" x="0 7.228 14.456" y="0">120</tspan></text><text id="text802" transform="translate(717,120.24512)" xml:space="preserve" style="font-variant:normal;font-weight:400;font-size:13px;font-family:Arial;-inkscape-font-specification:ArialMT;writing-mode:lr-tb;fill:#000;fill-opacity:1;fill-rule:nonzero;stroke:none"><tspan id="tspan800" x="0 7.228 14.456" y="0">130</tspan></text><text id="text806" transform="translate(754,120.24512)" xml:space="preserve" style="font-variant:normal;font-weight:400;font-size:13px;font-family:Arial;-inkscape-font-specification:ArialMT;writing-mode:lr-tb;fill:#000;fill-opacity:1;fill-rule:nonzero;stroke:none"><tspan id="tspan804" x="0 7.228 14.456" y="0">140</tspan></text><text id="text810" transform="translate(791,120.24512)" xml:space="preserve" style="font-variant:normal;font-weight:400;font-size:13px;font-family:Arial;-inkscape-font-specification:ArialMT;writing-mode:lr-tb;fill:#000;fill-opacity:1;fill-rule:nonzero;stroke:none"><tspan id="tspan808" x="0 7.228 14.456" y="0">150</tspan></text><text id="text814" transform="translate(828,120.24512)" xml:space="preserve" style="font-variant:normal;font-weight:400;font-size:13px;font-family:Arial;-inkscape-font-specification:ArialMT;writing-mode:lr-tb;fill:#000;fill-opacity:1;fill-rule:nonzero;stroke:none"><tspan id="tspan812" x="0 7.228 14.456" y="0">160</tspan></text><text id="text818" transform="translate(865,120.24512)" xml:space="preserve" style="font-variant:normal;font-weight:400;font-size:13px;font-family:Arial;-inkscape-font-specification:ArialMT;writing-mode:lr-tb;fill:#000;fill-opacity:1;fill-rule:nonzero;stroke:none"><tspan id="tspan816" x="0 7.228 14.456" y="0">170</tspan></text><text id="text822" transform="translate(902,120.24512)" xml:space="preserve" style="font-variant:normal;font-weight:400;font-size:13px;font-family:Arial;-inkscape-font-specification:ArialMT;writing-mode:lr-tb;fill:#000;fill-opacity:1;fill-rule:nonzero;stroke:none"><tspan id="tspan820" x="0 7.228 14.456" y="0">180</tspan></text><text id="text826" transform="translate(939,120.24512)" xml:space="preserve" style="font-variant:normal;font-weight:400;font-size:13px;font-family:Arial;-inkscape-font-specification:ArialMT;writing-mode:lr-tb;fill:#000;fill-opacity:1;fill-rule:nonzero;stroke:none"><tspan id="tspan824" x="0 7.228 14.456" y="0">190</tspan></text><text id="text830" transform="translate(976,120.24512)" xml:space="preserve" style="font-variant:normal;font-weight:400;font-size:13px;font-family:Arial;-inkscape-font-specification:ArialMT;writing-mode:lr-tb;fill:#000;fill-opacity:1;fill-rule:nonzero;stroke:none"><tspan id="tspan828" x="0 7.228 14.456" y="0">200</tspan></text><text id="text834" transform="translate(1013,120.24512)" xml:space="preserve" style="font-variant:normal;font-weight:400;font-size:13px;font-family:Arial;-inkscape-font-specification:ArialMT;writing-mode:lr-tb;fill:#000;fill-opacity:1;fill-rule:nonzero;stroke:none"><tspan id="tspan832" x="0 7.228 14.456" y="0">210</tspan></text><text id="text838" transform="translate(1050,120.24512)" xml:space="preserve" style="font-variant:normal;font-weight:400;font-size:13px;font-family:Arial;-inkscape-font-specification:ArialMT;writing-mode:lr-tb;fill:#000;fill-opacity:1;fill-rule:nonzero;stroke:none"><tspan id="tspan836" x="0 7.228 14.456" y="0">220</tspan></text><text id="text842" transform="translate(1087,120.24512)" xml:space="preserve" style="font-variant:normal;font-weight:400;font-size:13px;font-family:Arial;-inkscape-font-specification:ArialMT;writing-mode:lr-tb;fill:#000;fill-opacity:1;fill-rule:nonzero;stroke:none"><tspan id="tspan840" x="0 7.228 14.456" y="0">230</tspan></text><text id="text846" transform="translate(1124,120.24512)" xml:space="preserve" style="font-variant:normal;font-weight:400;font-size:13px;font-family:Arial;-inkscape-font-specification:ArialMT;writing-mode:lr-tb;fill:#000;fill-opacity:1;fill-rule:nonzero;stroke:none"><tspan id="tspan844" x="0 7.228 14.456" y="0">240</tspan></text><text id="text850" transform="translate(1161,120.24512)" xml:space="preserve" style="font-variant:normal;font-weight:400;font-size:13px;font-family:Arial;-inkscape-font-specification:ArialMT;writing-mode:lr-tb;fill:#000;fill-opacity:1;fill-rule:nonzero;stroke:none"><tspan id="tspan848" x="0 7.228 14.456" y="0">250</tspan></text><text id="text854" transform="translate(1198,120.24512)" xml:space="preserve" style="font-variant:normal;font-weight:400;font-size:13px;font-family:Arial;-inkscape-font-specification:ArialMT;writing-mode:lr-tb;fill:#000;fill-opacity:1;fill-rule:nonzero;stroke:none"><tspan id="tspan852" x="0 7.228 14.456" y="0">260</tspan></text><text id="text858" transform="translate(1235,120.24512)" xml:space="preserve" style="font-variant:normal;font-weight:400;font-size:13px;font-family:Arial;-inkscape-font-specification:ArialMT;writing-mode:lr-tb;fill:#000;fill-opacity:1;fill-rule:nonzero;stroke:none"><tspan id="tspan856" x="0 7.228 14.456" y="0">270</tspan></text><text id="text862" transform="translate(1272,120.24512)" xml:space="preserve" style="font-variant:normal;font-weight:400;font-size:13px;font-family:Arial;-inkscape-font-specification:ArialMT;writing-mode:lr-tb;fill:#000;fill-opacity:1;fill-rule:nonzero;stroke:none"><tspan id="tspan860" x="0 7.228 14.456" y="0">280</tspan></text><text id="text866" transform="translate(1309,120.24512)" xml:space="preserve" style="font-variant:normal;font-weight:400;font-size:13px;font-family:Arial;-inkscape-font-specification:ArialMT;writing-mode:lr-tb;fill:#000;fill-opacity:1;fill-rule:nonzero;stroke:none"><tspan id="tspan864" x="0 7.228 14.456" y="0">290</tspan></text><text id="text870" transform="translate(1346,120.24512)" xml:space="preserve" style="font-variant:normal;font-weight:400;font-size:13px;font-family:Arial;-inkscape-font-specification:ArialMT;writing-mode:lr-tb;fill:#000;fill-opacity:1;fill-rule:nonzero;stroke:none"><tspan id="tspan868" x="0 7.228 14.456" y="0">300</tspan></text><text id="text874" transform="translate(1383,120.24512)" xml:space="preserve" style="font-variant:normal;font-weight:400;font-size:13px;font-family:Arial;-inkscape-font-specification:ArialMT;writing-mode:lr-tb;fill:#000;fill-opacity:1;fill-rule:nonzero;stroke:none"><tspan id="tspan872" x="0 7.228 14.456" y="0">310</tspan></text><text id="text878" transform="translate(3,162.24512)" xml:space="preserve" style="font-variant:normal;font-weight:700;font-size:13px;font-family:Arial;-inkscape-font-specification:Arial-BoldMT;writing-mode:lr-tb;fill:#000;fill-opacity:1;fill-rule:nonzero;stroke:none"><tspan id="tspan876" x="0 8.658 16.588 24.518 31.746 36.075 41.132 48.36 55.588 67.145 70.746 77.974 81.575 85.904 93.132 100.36 103.961 115.518 122.746" y="0">Substream 0 (20 ms)</tspan></text><text id="text882" transform="translate(236,160.24512)" xml:space="preserve" style="font-variant:normal;font-weight:400;font-size:13px;font-family:Arial;-inkscape-font-specification:ArialMT;writing-mode:lr-tb;fill:#000;fill-opacity:1;fill-rule:nonzero;stroke:none"><tspan id="tspan880" x="0" y="0">x</tspan></text><text id="text886" transform="translate(310,160.24512)" xml:space="preserve" style="font-variant:normal;font-weight:400;font-size:13px;font-family:Arial;-inkscape-font-specification:ArialMT;writing-mode:lr-tb;fill:#000;fill-opacity:1;fill-rule:nonzero;stroke:none"><tspan id="tspan884" x="0" y="0">z</tspan></text><text id="text890" transform="translate(3,183.24512)" xml:space="preserve" style="font-variant:normal;font-weight:700;font-size:13px;font-family:Arial;-inkscape-font-specification:Arial-BoldMT;writing-mode:lr-tb;fill:#000;fill-opacity:1;fill-rule:nonzero;stroke:none"><tspan id="tspan888" x="0 8.658 16.588 24.518 31.746 36.075 41.132 48.36 55.588 67.145 70.746 77.974 81.575 85.904 93.132 100.36 103.961 115.518 122.746" y="0">Substream 1 (30 ms)</tspan></text><text id="text894" transform="translate(236,181.24512)" xml:space="preserve" style="font-variant:normal;font-weight:400;font-size:13px;font-family:Arial;-inkscape-font-specification:ArialMT;writing-mode:lr-tb;fill:#000;fill-opacity:1;fill-rule:nonzero;stroke:none"><tspan id="tspan892" x="0" y="0">x</tspan></text><text id="text898" transform="translate(3,204.24512)" xml:space="preserve" style="font-variant:normal;font-weight:700;font-size:13px;font-family:Arial;-inkscape-font-specification:Arial-BoldMT;writing-mode:lr-tb;fill:#000;fill-opacity:1;fill-rule:nonzero;stroke:none"><tspan id="tspan896" x="0 8.658 15.886 20.943 28.171 39.728 46.956 51.285 58.513 63.57 67.171 74.399 78 82.329 89.557 96.785 100.386 111.943 119.171" y="0">Parameter 0 (10 ms)</tspan></text><text id="text902" transform="translate(236,202.24512)" xml:space="preserve" style="font-variant:normal;font-weight:400;font-size:13px;font-family:Arial;-inkscape-font-specification:ArialMT;writing-mode:lr-tb;fill:#000;fill-opacity:1;fill-rule:nonzero;stroke:none"><tspan id="tspan900" x="0" y="0">x</tspan></text><text id="text906" transform="translate(273,202.24512)" xml:space="preserve" style="font-variant:normal;font-weight:400;font-size:13px;font-family:Arial;-inkscape-font-specification:ArialMT;writing-mode:lr-tb;fill:#000;fill-opacity:1;fill-rule:nonzero;stroke:none"><tspan id="tspan904" x="0" y="0">y</tspan></text><text id="text910" transform="translate(310,202.24512)" xml:space="preserve" style="font-variant:normal;font-weight:400;font-size:13px;font-family:Arial;-inkscape-font-specification:ArialMT;writing-mode:lr-tb;fill:#000;fill-opacity:1;fill-rule:nonzero;stroke:none"><tspan id="tspan908" x="0" y="0">z</tspan></text><text id="text914" transform="translate(3,225.24512)" xml:space="preserve" style="font-variant:normal;font-weight:700;font-size:13px;font-family:Arial;-inkscape-font-specification:Arial-BoldMT;writing-mode:lr-tb;fill:#000;fill-opacity:1;fill-rule:nonzero;stroke:none"><tspan id="tspan912" x="0 8.658 15.886 20.943 28.171 39.728 46.956 51.285 58.513 63.57 67.171 74.399 78 82.329 89.557 96.785 100.386 111.943 119.171" y="0">Parameter 1 (40 ms)</tspan></text><text id="text918" transform="translate(236,223.24512)" xml:space="preserve" style="font-variant:normal;font-weight:400;font-size:13px;font-family:Arial;-inkscape-font-specification:ArialMT;writing-mode:lr-tb;fill:#000;fill-opacity:1;fill-rule:nonzero;stroke:none"><tspan id="tspan916" x="0" y="0">x</tspan></text><text id="text922" transform="translate(3,246.24512)" xml:space="preserve" style="font-variant:normal;font-weight:700;font-size:13px;font-family:Arial;-inkscape-font-specification:Arial-BoldMT;writing-mode:lr-tb;fill:#000;fill-opacity:1;fill-rule:nonzero;stroke:none"><tspan id="tspan920" x="0 8.658 15.886 20.943 28.171 39.728 46.956 51.285 58.513 63.57 67.171 74.399 78 82.329 89.557 96.785 101.842 105.443 112.671 120.601 124.202 131.43" y="0">Parameter 2 (variable)</tspan></text><text id="text926" transform="translate(236,244.24512)" xml:space="preserve" style="font-variant:normal;font-weight:400;font-size:13px;font-family:Arial;-inkscape-font-specification:ArialMT;writing-mode:lr-tb;fill:#000;fill-opacity:1;fill-rule:nonzero;stroke:none"><tspan id="tspan924" x="0" y="0">x</tspan></text><text id="text930" transform="translate(273,244.24512)" xml:space="preserve" style="font-variant:normal;font-weight:400;font-size:13px;font-family:Arial;-inkscape-font-specification:ArialMT;writing-mode:lr-tb;fill:#000;fill-opacity:1;fill-rule:nonzero;stroke:none"><tspan id="tspan928" x="0" y="0">y</tspan></text><text id="text934" transform="translate(310,244.24512)" xml:space="preserve" style="font-variant:normal;font-weight:400;font-size:13px;font-family:Arial;-inkscape-font-specification:ArialMT;writing-mode:lr-tb;fill:#000;fill-opacity:1;fill-rule:nonzero;stroke:none"><tspan id="tspan932" x="0" y="0">z</tspan></text><text id="text938" transform="translate(3,288.24512)" xml:space="preserve" style="font-variant:normal;font-weight:700;font-size:13px;font-family:Arial;-inkscape-font-specification:Arial-BoldMT;writing-mode:lr-tb;fill:#000;fill-opacity:1;fill-rule:nonzero;stroke:none"><tspan id="tspan936" x="0 9.386 12.987 20.917 29.575 37.505 46.891 55.549 64.935" y="0">BITSTREAM</tspan></text><text id="text942" transform="translate(3,309.24512)" xml:space="preserve" style="font-variant:normal;font-weight:700;font-size:13px;font-family:Arial;-inkscape-font-specification:Arial-BoldMT;writing-mode:lr-tb;fill:#000;fill-opacity:1;fill-rule:nonzero;stroke:none"><tspan id="tspan940" x="0 10.101 13.702 21.632 29.562 36.79 40.391 43.992 55.549 62.777 67.106 74.334 82.264 89.492 93.821" y="0">Global metadata</tspan></text><text id="text946" transform="translate(236,307.24512)" xml:space="preserve" style="font-variant:normal;font-weight:400;font-size:13px;font-family:Arial;-inkscape-font-specification:ArialMT;writing-mode:lr-tb;fill:#000;fill-opacity:1;fill-rule:nonzero;stroke:none"><tspan id="tspan944" x="0" y="0">x</tspan></text><text id="text950" transform="translate(273,307.24512)" xml:space="preserve" style="font-variant:normal;font-weight:400;font-size:13px;font-family:Arial;-inkscape-font-specification:ArialMT;writing-mode:lr-tb;fill:#000;fill-opacity:1;fill-rule:nonzero;stroke:none"><tspan id="tspan948" x="0" y="0">x</tspan></text><text id="text954" transform="translate(421,307.24512)" xml:space="preserve" style="font-variant:normal;font-weight:400;font-size:13px;font-family:Arial;-inkscape-font-specification:ArialMT;writing-mode:lr-tb;fill:#000;fill-opacity:1;fill-rule:nonzero;stroke:none"><tspan id="tspan952" x="0" y="0">x</tspan></text><text id="text958" transform="translate(458,307.24512)" xml:space="preserve" style="font-variant:normal;font-weight:400;font-size:13px;font-family:Arial;-inkscape-font-specification:ArialMT;writing-mode:lr-tb;fill:#000;fill-opacity:1;fill-rule:nonzero;stroke:none"><tspan id="tspan956" x="0" y="0">x</tspan></text><text id="text962" transform="translate(532,307.24512)" xml:space="preserve" style="font-variant:normal;font-weight:400;font-size:13px;font-family:Arial;-inkscape-font-specification:ArialMT;writing-mode:lr-tb;fill:#000;fill-opacity:1;fill-rule:nonzero;stroke:none"><tspan id="tspan960" x="0" y="0">x</tspan></text><text id="text966" transform="translate(643,309.24512)" xml:space="preserve" style="font-variant:normal;font-weight:400;font-size:13px;font-family:Arial;-inkscape-font-specification:ArialMT;writing-mode:lr-tb;fill:#000;fill-opacity:1;fill-rule:nonzero;stroke:none"><tspan id="tspan964" x="0 3.601 7.202" y="0">...</tspan></text><text id="text970" transform="translate(3,330.24512)" xml:space="preserve" style="font-variant:normal;font-weight:700;font-size:13px;font-family:Arial;-inkscape-font-specification:Arial-BoldMT;writing-mode:lr-tb;fill:#000;fill-opacity:1;fill-rule:nonzero;stroke:none"><tspan id="tspan968" x="0 9.386 17.316 25.246 32.474 36.803 44.031 48.36 51.961 59.189 66.417 70.018 81.575" y="0">Update: 10 ms</tspan></text><text id="text974" transform="translate(236,328.24512)" xml:space="preserve" style="font-variant:normal;font-weight:400;font-size:13px;font-family:Arial;-inkscape-font-specification:ArialMT;writing-mode:lr-tb;fill:#000;fill-opacity:1;fill-rule:nonzero;stroke:none"><tspan id="tspan972" x="0" y="0">y</tspan></text><text id="text978" transform="translate(273,328.24512)" xml:space="preserve" style="font-variant:normal;font-weight:400;font-size:13px;font-family:Arial;-inkscape-font-specification:ArialMT;writing-mode:lr-tb;fill:#000;fill-opacity:1;fill-rule:nonzero;stroke:none"><tspan id="tspan976" x="0" y="0">y</tspan></text><text id="text982" transform="translate(310,329.24512)" xml:space="preserve" style="font-variant:normal;font-weight:400;font-size:13px;font-family:Arial;-inkscape-font-specification:ArialMT;writing-mode:lr-tb;fill:#000;fill-opacity:1;fill-rule:nonzero;stroke:none"><tspan id="tspan980" x="0 3.601 7.202" y="0">...</tspan></text><text id="text986" transform="translate(3,351.24512)" xml:space="preserve" style="font-variant:normal;font-weight:700;font-size:13px;font-family:Arial;-inkscape-font-specification:Arial-BoldMT;writing-mode:lr-tb;fill:#000;fill-opacity:1;fill-rule:nonzero;stroke:none"><tspan id="tspan984" x="0 9.386 17.316 25.246 32.474 36.803 44.031 48.36 51.961 59.189 66.417 70.018 81.575" y="0">Update: 20 ms</tspan></text><text id="text990" transform="translate(236,349.24512)" xml:space="preserve" style="font-variant:normal;font-weight:400;font-size:13px;font-family:Arial;-inkscape-font-specification:ArialMT;writing-mode:lr-tb;fill:#000;fill-opacity:1;fill-rule:nonzero;stroke:none"><tspan id="tspan988" x="0" y="0">z</tspan></text><text id="text994" transform="translate(273,349.24512)" xml:space="preserve" style="font-variant:normal;font-weight:400;font-size:13px;font-family:Arial;-inkscape-font-specification:ArialMT;writing-mode:lr-tb;fill:#000;fill-opacity:1;fill-rule:nonzero;stroke:none"><tspan id="tspan992" x="0" y="0">z</tspan></text><text id="text998" transform="translate(310,349.24512)" xml:space="preserve" style="font-variant:normal;font-weight:400;font-size:13px;font-family:Arial;-inkscape-font-specification:ArialMT;writing-mode:lr-tb;fill:#000;fill-opacity:1;fill-rule:nonzero;stroke:none"><tspan id="tspan996" x="0" y="0">z</tspan></text><text id="text1002" transform="translate(384,350.24512)" xml:space="preserve" style="font-variant:normal;font-weight:400;font-size:13px;font-family:Arial;-inkscape-font-specification:ArialMT;writing-mode:lr-tb;fill:#000;fill-opacity:1;fill-rule:nonzero;stroke:none"><tspan id="tspan1000" x="0 3.601 7.202" y="0">...</tspan></text><text id="text1006" transform="translate(3,372.24512)" xml:space="preserve" style="font-variant:normal;font-weight:700;font-size:13px;font-family:Arial;-inkscape-font-specification:Arial-BoldMT;writing-mode:lr-tb;fill:#000;fill-opacity:1;fill-rule:nonzero;stroke:none"><tspan id="tspan1004" x="0 9.386 17.316 25.246 32.474 36.803 44.031 48.36 51.961 59.189 66.417 70.018 81.575" y="0">Update: 30 ms</tspan></text><text id="text1010" transform="translate(421,372.24512)" xml:space="preserve" style="font-variant:normal;font-weight:400;font-size:13px;font-family:Arial;-inkscape-font-specification:ArialMT;writing-mode:lr-tb;fill:#000;fill-opacity:1;fill-rule:nonzero;stroke:none"><tspan id="tspan1008" x="0 3.601 7.202" y="0">...</tspan></text></g></g></g></g></svg>